<?xml version="1.0" encoding="UTF-8"?>
<svg id="Layer_2" data-name="Layer 2" xmlns="http://www.w3.org/2000/svg" viewBox="0 0 172.03 174.97">
  <defs>
    <style>
      .cls-1 {
        fill: #a6a6a6;
      }
    </style>
  </defs>
  <g id="Layer_1-2" data-name="Layer 1">
    <g>
      <path class="cls-1" d="M0,140.53c5.31-11.14,14.07-18.64,24.87-24.26,8.26-4.3,16.22-9.19,24.27-13.88,4.87-2.83,5.33-5.22,1.66-9.48-8.73-10.13-15.26-21.26-17.52-34.73-3.53-20.99,5.53-41.5,23.29-51.81C74.08-3.79,96.18-1.66,112.03,11.73c14.27,12.05,19.86,34.02,14.04,53.51-3.02,10.13-8.36,18.77-15.09,26.72-4.58,5.4-4.52,6.11,1.22,10.44,1.62,1.22,1.84,1.99,.41,3.44-1.87,1.89-3.73,3.82-5.31,5.95-4.07,5.48-4.52,5.57-9.6,.84-7.36-6.86-8.82-17.93-3.18-26.4,2.67-4.01,6.06-7.53,8.78-11.5,8.43-12.3,11.07-25.59,5.4-39.73-5.04-12.56-19.02-20.02-32.49-17.88-14.43,2.29-25.1,13.34-26.48,27.18-1.27,12.77,2.08,24.04,10.42,33.81,1.41,1.65,2.84,3.27,4.18,4.97,9.33,11.77,6.91,25.54-5.95,33.16-10.17,6.02-20.45,11.84-30.69,17.74-7.32,4.22-12.09,10.27-13.62,18.71-.71,3.91-.21,5.89,4.83,5.83,25.48-.3,50.97-.07,76.46-.21,3.44-.02,5.59,.73,6.73,4.23,.92,2.83,2.59,5.36,4.42,7.78,.84,1.12,2.67,2.22,1.93,3.74-.73,1.49-2.68,.74-4.09,.74-17.82,.04-35.65,.1-53.47,0-7.32-.04-14.65,.59-21.95-.47-10.02-7.87-19-16.73-25.82-27.58-1.22-1.95-2.83-3.75-3.1-6.19Z"/>
      <path class="cls-1" d="M162.69,161.25c-13.59,7.39-25.37,6.36-33.96-3.29-6.95-7.81-8.55-16.87-4.41-26.45,4.03-9.35,11.46-14.48,21.72-15.04,9.56-.52,9.56-.42,9.56-9.83,0-9.16-.05-18.31,.02-27.47,.05-6.37,2.92-9.77,8.07-9.84,5.21-.08,8.29,3.31,8.31,9.57,.06,20.81-.03,41.62,.04,62.43,.01,3.92-1.2,7.51-2.21,11.18-2.38,2.91-4.76,5.83-7.14,8.74Z"/>
    </g>
  </g>
</svg>