<?xml version="1.0" encoding="UTF-8"?>
<svg id="Layer_2" data-name="Layer 2" xmlns="http://www.w3.org/2000/svg" viewBox="0 0 52.92 24.95">
  <defs>
    <style>
      .cls-1 {
        fill: #fdfdfd;
      }

      .cls-2 {
        fill: #7f7f7f;
      }

      .cls-3 {
        fill: #121212;
      }

      .cls-4 {
        fill: #707070;
      }
    </style>
  </defs>
  <g id="Layer_1-2" data-name="Layer 1">
    <g>
      <path class="cls-4" d="M16.24,9.17v6.65c0,2.51-2.03,4.54-4.53,4.54h-2.66c-2.51,0-4.54-2.03-4.54-4.54v-6.65c0-2.51,2.03-4.54,4.54-4.54h2.66c2.5,0,4.53,2.03,4.53,4.54Z"/>
      <path class="cls-4" d="M48,7.11c-.07-4.41-2.44-6.94-6.75-7C29.78-.04,18.3-.04,6.83,.11,2.52,.17,.13,2.67,.06,7.09c-.05,3.49-.11,6.99,.01,10.48,.17,4.98,2.33,7.15,7.49,7.3,5.48,.15,10.97,.03,16.46,.03s10.98,.13,16.46-.03c5.33-.16,7.39-2.38,7.52-7.78,.09-3.33,.04-6.65,0-9.98Zm-16.31,15.85h-7.47v-.05c-5.48,0-10.95,.01-16.43-.01-3.81-.01-5.65-1.74-5.8-5.76C1.39,1.97,1.3,1.97,16.37,1.97c7.8,0,15.6,.06,23.4,.02,4.29-.02,6.24,1.79,6.32,6.3,.25,14.67,.36,14.67-14.4,14.67Z"/>
      <path class="cls-2" d="M50.42,8.4c3.29,2.97,3.26,5.15,.36,7.84-1.23-2.56-.8-4.77-.36-7.84Z"/>
      <path class="cls-3" d="M16.24,9.17v6.65c0,2.51-2.03,4.54-4.53,4.54h-2.66c-2.51,0-4.54-2.03-4.54-4.54v-6.65c0-2.51,2.03-4.54,4.54-4.54h2.66c2.5,0,4.53,2.03,4.53,4.54Z"/>
      <path class="cls-1" d="M16.24,9.17v6.65c0,2.51-2.03,4.54-4.53,4.54h-2.66c-2.51,0-4.54-2.03-4.54-4.54v-6.65c0-2.51,2.03-4.54,4.54-4.54h2.66c2.5,0,4.53,2.03,4.53,4.54Z"/>
    </g>
  </g>
</svg>