<?xml version="1.0" encoding="UTF-8"?>
<svg id="Layer_2" data-name="Layer 2" xmlns="http://www.w3.org/2000/svg" viewBox="0 0 44.01 43.98">
  <defs>
    <style>
      .cls-1 {
        fill: #eaeaea;
      }

      .cls-2 {
        fill: #fcfcfc;
      }

      .cls-3 {
        fill: #fafafa;
      }

      .cls-4 {
        fill: #efefef;
      }
    </style>
  </defs>
  <g id="Layer_1-2" data-name="Layer 1">
    <g>
      <path class="cls-2" d="M40.01,22.31c.12-9.18-6.25-16.44-15.92-18.15-1.56-.28-3.93,.13-3.75-2.19,.21-2.65,2.66-1.94,4.37-1.75,11.03,1.23,19.61,11.25,19.28,22.44-.33,11.4-9.7,20.87-21.06,21.29C11.7,44.38,1.69,36.01,.28,24.95c-.22-1.72-.96-4.25,1.48-4.6,2.67-.39,2.13,2.28,2.43,3.97,1.74,9.91,9.78,16.38,19.36,15.61,9.11-.74,16.35-8.48,16.46-17.62Z"/>
      <path class="cls-3" d="M20.16,16.58c0-2.16-.09-4.32,.04-6.47,.06-1.03,.8-1.89,1.95-1.86,1.14,.03,1.75,.87,1.85,1.94,.11,1.15,.12,2.33,.07,3.48-.16,3.67-.7,7.54,5.17,6.39,1.23-.24,2.45,.43,2.55,1.77,.13,1.73-1.22,2.12-2.67,2.17-.5,.02-1,0-1.49,.01q-7.56,.22-7.48-7.44Z"/>
      <path class="cls-1" d="M7.03,11.69c.05,1.85-.95,2.66-2.42,2.69-1.28,.02-2.23-.89-2.3-2.14-.09-1.55,.88-2.45,2.44-2.43,1.29,.01,2.17,.68,2.28,1.88Z"/>
      <path class="cls-4" d="M14.09,5.69c-.08,.66-.89,1.47-2.5,1.34-1.46-.11-2.01-1.2-1.99-2.36,.04-1.53,1.11-2.41,2.63-2.25,1.27,.13,1.99,1.01,1.86,3.27Z"/>
    </g>
  </g>
</svg>