<?xml version="1.0" encoding="UTF-8"?>
<svg id="Layer_2" data-name="Layer 2" xmlns="http://www.w3.org/2000/svg" viewBox="0 0 40.19 41.78">
  <defs>
    <style>
      .cls-1 {
        fill: #fefefe;
      }
    </style>
  </defs>
  <g id="Layer_1-2" data-name="Layer 1">
    <path class="cls-1" d="M40.07,25.97c0,4-.09,7.99,.03,11.99,.08,2.82-1.14,3.99-3.89,3.75-.33-.03-.67,0-1,0-10.88,.18-11.07,.18-11.04-10.44,0-3.43-1.34-3.68-4.07-3.63-2.59,.05-4.15,.01-4.14,3.56,.02,10.68-.18,10.55-10.97,10.58-3.58,.01-5.12-.9-4.99-4.76,.25-7.32,.19-14.65,.02-21.98-.08-3.25,1.15-5.22,3.97-6.77,20.14-11.06,12.19-10.83,31.27-.56,3.46,1.86,5.28,4.16,4.87,8.28-.33,3.3-.07,6.65-.06,9.98Z"/>
  </g>
</svg>