<?xml version="1.0" encoding="UTF-8"?>
<svg id="Layer_2" data-name="Layer 2" xmlns="http://www.w3.org/2000/svg" viewBox="0 0 40.27 40.3">
  <defs>
    <style>
      .cls-1 {
        fill: #b2b2b2;
      }
    </style>
  </defs>
  <g id="Layer_1-2" data-name="Layer 1">
    <g>
      <path class="cls-1" d="M32.04,3.17c-1.44-2.16-3.2-3.66-6.03-3.03-2.47,1-1.99,3.17-1.99,5.12-.02,7.99-.11,15.98,.01,23.97,.19,12.72-2.3,10.79,11.6,11.06,3.2,.07,4.52-1.04,4.42-4.32-.16-5.83-.47-11.69,.07-17.47,.67-7.12-.64-12.72-8.08-15.33Zm4.09,13.92c-.59,5.26-.32,10.65-.05,15.96,.17,3.37-1.68,3.29-4,3.23-2.15-.06-4.23,.48-4.14-3.07,.22-8.81,.07-17.63,.07-26.8,6.03,1.56,8.82,4.51,8.12,10.68Z"/>
      <path class="cls-1" d="M16.13,2.26c-.04,11.11-.06,22.21-.13,33.32-.01,1.71,.56,4.28-1.98,4.29-2.54,0-1.99-2.56-1.99-4.27,.01-11.44,.08-22.88,.13-34.32,.15-.44,.44-.74,.89-.88,.6-.02,1.19-.04,1.79-.06,.89,.33,1.67,.73,1.28,1.91Z"/>
      <path class="cls-1" d="M3.89,1.27c.04,11.6,.1,23.2,.12,34.79,0,1.6,.33,3.81-1.97,3.84-2.34,.03-2.01-2.19-2.01-3.78C0,25.52,.03,14.92,0,4.31,0,2.56,.15,.98,2.01,.19c1.1-.46,1.58,.15,1.88,1.08Z"/>
    </g>
  </g>
</svg>