<?xml version="1.0" encoding="UTF-8"?>
<svg id="Layer_2" data-name="Layer 2" xmlns="http://www.w3.org/2000/svg" viewBox="0 0 36.06 21.08">
  <defs>
    <style>
      .cls-1 {
        fill: #f7f7f7;
      }

      .cls-2 {
        fill: #f8f8f8;
      }

      .cls-3 {
        fill: #151515;
      }

      .cls-4 {
        fill: #141414;
      }

      .cls-5 {
        fill: #1b1b1b;
      }
    </style>
  </defs>
  <g id="Layer_1-2" data-name="Layer 1">
    <g>
      <path class="cls-1" d="M21.16,6.07v1.04c-.07-.33-.19-.68-.37-1.07h.18s.07-.07,.1-.11c.04,.05,.07,.1,.09,.14Z"/>
      <path class="cls-1" d="M26.19,6.01c-.43,7.59-2.55,9.3-11.16,9.01l-.06,.06s-.04-.05-.05-.08l.09-.08,2.61-2.55c.21-.01,.43-.02,.63-.05,4.69-.59,5.69-2.49,3.91-7.27-.02-.06-.04-.12-.07-.19-3.91-3.95-8.79-1.15-13.16-1.87-2.68-.44-5.09,.42-5.76,3.41-.62,2.76,.43,4.67,3.26,5.84,2.46,1.01,2.84,2.38-.39,2.97C1.63,13.78-.68,10.78,.18,6.16,1.06,1.41,4.57-.1,9.07,.03c2.65,.08,5.32,.11,7.97-.01,4.53-.2,7.73,1.51,9.15,5.99Z"/>
      <path class="cls-2" d="M35.78,15.43c-1.04,4.45-4.5,5.8-8.79,5.63-2.66-.11-5.34-.14-7.99,0-4.59,.25-7.71-1.57-9.14-6.02,.49-7.44,2.55-9.16,10.93-9h.18s.07-.07,.1-.11c.04,.05,.07,.1,.09,.14v1.04c.08,1.86-1.73,1.53-3.27,1.7-4.79,.54-5.77,2.46-3.95,7.37,3.88,4.06,8.8,1.2,13.18,1.93,2.66,.44,5.13-.36,5.78-3.41,.59-2.77-.42-4.69-3.29-5.84-2.51-1.01-2.82-2.38,.38-2.99,4.65,1.54,6.92,4.74,5.79,9.56Z"/>
      <path class="cls-3" d="M21.16,6.07c-.06,0-.12-.02-.19-.03,.03-.04,.07-.07,.1-.11,.04,.05,.07,.1,.09,.14Z"/>
      <path class="cls-4" d="M15.03,15.02l-.06,.06s-.04-.05-.05-.08c.03,0,.07,0,.11,.02Z"/>
      <path class="cls-5" d="M15.03,15.02l-.06,.06s-.04-.05-.05-.08l.09-.08s.01,.07,.02,.1Z"/>
      <path class="cls-5" d="M21.17,7.11c-.02-.29-.09-.65-.2-1.07,.03-.04,.07-.07,.1-.11,.04,.05,.07,.1,.09,.14v1.04Z"/>
      <path class="cls-1" d="M15.01,14.92s-.65-2.31,2.61-2.55"/>
    </g>
  </g>
</svg>