<?xml version="1.0" encoding="UTF-8"?>
<svg id="Layer_2" data-name="Layer 2" xmlns="http://www.w3.org/2000/svg" viewBox="0 0 166.69 155.66">
  <defs>
    <style>
      .cls-1 {
        fill: #a6a6a6;
      }
    </style>
  </defs>
  <g id="Layer_1-2" data-name="Layer 1">
    <path class="cls-1" d="M166.58,66.19c0-20.33-.12-40.65,.1-60.97,.05-4.19-1.1-5.22-5.24-5.2C123.47,.19,85.49,.21,47.51,0c-4.76-.03-6.07,1.06-6.03,5.95,.26,28.82,.05,57.64,.22,86.45,.03,3.99-1.11,5.22-5,4.94-3.97-.29-7.97-.18-11.96,.46-11.37,1.81-21.62,11.09-23.99,21.92-2.79,12.73,2.26,24.61,13.51,31.81,9.64,6.16,22.76,5.35,32.29-1.91,8.51-6.48,11.87-15.23,11.85-25.67-.05-33.98,.03-67.97-.08-101.95-.01-3.63,.55-5.22,4.79-5.19,27.32,.21,54.64,.21,81.95,.01,4.22-.04,4.84,1.51,4.82,5.17-.15,20.99-.02,41.98-.12,62.96-.02,3.93,1.77,8.9-.89,11.53-2.43,2.4-7.3,.49-11.08,.81-1.66,.14-3.31,.32-4.96,.58-12.79,2-23.38,13.16-24.3,25.56-1.07,14.47,7.29,27.01,20.68,31.02,18.21,5.45,37.01-8.12,37.28-27.3,.29-20.32,.07-40.64,.07-60.96h.02ZM40.84,130.55c-2.19,5.78-7.97,9.33-13.77,8.29-5.92-1.06-10.42-6.39-10.42-12.31s4.7-11.51,10.91-12.33c1.97-.26,3.99-.15,5.98-.16q8.07-.01,8.07,8.46c-.15,2.46,.28,5.29-.77,8.05Zm108.84-3c-.53,6.46-5.83,11.39-12.2,11.44-6.44,.06-12.07-5.26-12.52-11.81-.42-6.14,4.4-12.06,10.71-12.96,1.96-.28,3.98-.17,5.97-.18q8.17-.01,8.06,8.04c0,1.82,.13,3.66-.02,5.47Z"/>
  </g>
</svg>