<?xml version="1.0" encoding="UTF-8"?>
<svg id="Layer_2" data-name="Layer 2" xmlns="http://www.w3.org/2000/svg" viewBox="0 0 43.36 45.93">
  <defs>
    <style>
      .cls-1 {
        fill: #fdfdfd;
      }
    </style>
  </defs>
  <g id="Layer_1-2" data-name="Layer 1">
    <path class="cls-1" d="M36.87,26.4c-1.54-3.88-.26-8.22-.61-12.35C35.59,6.13,29.23,.08,21.46,0,13.5-.08,6.25,6.12,6.55,14.24c.31,8.39-1.66,15.64-6.44,22.34-.2,.29-.07,.82-.1,1.39,3.51,0,6.84,.11,10.15-.04,2.51-.12,4.17,.07,4.71,3.24,.47,2.78,2.89,4.38,5.79,4.71,2.74,.31,5.78-.78,6.23-3.12,1.17-6.03,5.42-4.73,9.25-4.79,2.15-.03,4.29,0,7.22,0-2.5-4.37-4.98-7.77-6.49-11.57Zm-15.7,15.47c-1.48-.06-2.49-1.03-2.66-2.4-.29-2.32,1.68-1.21,2.71-1.59,1,.45,2.99-.83,2.91,1.39-.06,1.57-1.23,2.66-2.96,2.6Zm-15.19-8.16c5.19-5.41,4.28-11.63,4.36-17.7,.09-7.21,4.77-12.13,11.18-12,6.26,.13,10.66,4.92,10.76,11.93,.09,6.07-.87,12.31,4.38,17.77H5.98Z"/>
  </g>
</svg>