<?xml version="1.0" encoding="UTF-8"?>
<svg id="Layer_2" data-name="Layer 2" xmlns="http://www.w3.org/2000/svg" viewBox="0 0 42.56 42.73">
  <defs>
    <style>
      .cls-1 {
        fill: #b1b1b1;
      }
    </style>
  </defs>
  <g id="Layer_1-2" data-name="Layer 1">
    <path class="cls-1" d="M41.61,39.01c-2.07-2.15-4.17-4.28-6.3-6.38-1.12-1.1-1.68-1.88-.81-3.75,6.05-13.03,2.57-21.8-10.85-28-.44-.37-.92-.66-1.45-.88-2.4-.03-4.74,.75-7.21,.15-2.29-.55-4.07,.65-5.36,2.55-1.19,.9-2.44,1.73-3.55,2.73C.1,10.75-1.69,19.55,1.69,26.83c3.33,7.18,11.86,12.75,19.09,10.3,7.75-2.63,13.53-2.73,18.18,4.64,.63,1.01,1.89,1.4,2.99,.27,1.12-1.13,.51-2.15-.34-3.03Zm-22.91-5.4c-8-.01-14.84-6.75-14.81-14.58,.02-7.98,6.63-14.38,14.84-14.38s14.82,6.49,14.81,14.41c-.02,7.83-6.88,14.56-14.84,14.55Z"/>
  </g>
</svg>