<?xml version="1.0" encoding="UTF-8"?>
<svg id="Layer_2" data-name="Layer 2" xmlns="http://www.w3.org/2000/svg" viewBox="0 0 47.25 46.49">
  <defs>
    <style>
      .cls-1 {
        fill: #fafafa;
      }

      .cls-2 {
        fill: #fdfdfd;
      }

      .cls-3 {
        fill: #131313;
      }
    </style>
  </defs>
  <g id="Layer_1-2" data-name="Layer 1">
    <g>
      <path class="cls-2" d="M23.85,13.29c-5.3-.06-9.88,4.3-10.08,9.62-.21,5.51,4.31,10.25,9.85,10.31,5.34,.07,9.88-4.25,10.08-9.58,.21-5.49-4.35-10.28-9.85-10.35Zm0,15.86c-3.66,.01-5.98-2.25-5.98-5.88-.01-3.64,2.34-5.88,5.98-5.9,3.48-.01,5.09,2.49,5.95,5.23-.6,3.84-2.14,6.53-5.95,6.55Z"/>
      <path class="cls-2" d="M47.13,23.53c-.46-2.64-4.53-1.6-5.14-4.1-.63-2.55,3.25-3.29,2.9-5.95-.32-4.35-6.46-8.67-10.43-7.18-2.75,1.03-3.66-.09-3.87-2.6C30.25-.61,26.81,.04,24.2,.12c-2.68,.09-6.49-1.25-7.11,3.3-.52,3.72-2.17,3.85-5.09,2.28-3.95-2.12-5.24,1.73-6.99,3.76-1.57,1.83-4.01,4.06-1.07,6.84,2.19,2.08,2.64,3.95-.85,5.02-4.83,1.47-2.67,5.1-2.19,7.85,.47,2.78,1,6.15,5.51,5.3,3.06-.57,4.01,.98,2.78,3.79-1.89,4.3,1.74,5.24,4.21,6.41,2.61,1.22,5.71,3.71,8.1-.64,1.27-2.32,2.94-2.88,4.36-.2,2.28,4.3,5.37,2.26,8.07,.99,2.87-1.36,6.51-2.62,4.18-7.29-.97-1.95-.08-3.34,2.23-3.12,2.66,.25,4.86,.33,5.67-3.11,.62-2.58,1.58-5.16,1.12-7.77Zm-4.2,4.36c-.41,2.24-1.59,2.37-3.43,2.55-3.92,.37-6.19,2.67-5.55,6.69,.34,2.13,.16,3.16-1.89,4.19-2.05,1.04-2.8,.08-4.01-1.23-2.74-2.97-5.79-3.03-8.55-.03-1.2,1.3-1.95,2.35-4,1.26-1.94-1.02-2.95-2-1.82-3.98,.23-4.21-1.76-6.51-5.67-6.9-1.82-.19-3.05-.27-3.46-2.53-.38-2.1,.49-2.88,2.03-3.89,3.34-2.17,4.11-5.33,1.77-8.54-1.35-1.84-.76-2.78,.27-4.21,1.03-1.44,1.98-1.67,3.68-1.07,3.97,1.4,6.99-.1,8.23-4.03,.64-2.04,1.76-1.99,3.29-2.04,1.6-.05,2.58,.15,3.22,2.09,1.28,3.93,4.32,5.42,8.25,3.95,1.8-.68,2.62-.18,3.67,1.13,1.14,1.44,1.51,2.39,.19,4.19-2.36,3.2-1.6,6.36,1.75,8.52,1.55,1.01,2.42,1.77,2.03,3.88Z"/>
      <path class="cls-3" d="M23.85,13.29c-5.3-.06-9.88,4.3-10.08,9.62-.21,5.51,4.31,10.25,9.85,10.31,5.34,.07,9.88-4.25,10.08-9.58,.21-5.49-4.35-10.28-9.85-10.35Zm0,15.86c-3.66,.01-5.98-2.25-5.98-5.88-.01-3.64,2.34-5.88,5.98-5.9,3.48-.01,5.09,2.49,5.95,5.23-.6,3.84-2.14,6.53-5.95,6.55Z"/>
      <path class="cls-1" d="M23.85,13.29c-5.3-.06-9.88,4.3-10.08,9.62-.21,5.51,4.31,10.25,9.85,10.31,5.34,.07,9.88-4.25,10.08-9.58,.21-5.49-4.35-10.28-9.85-10.35Zm0,15.86c-3.66,.01-5.98-2.25-5.98-5.88-.01-3.64,2.34-5.88,5.98-5.9,3.48-.01,5.09,2.49,5.95,5.23-.6,3.84-2.14,6.53-5.95,6.55Z"/>
    </g>
  </g>
</svg>