<?xml version="1.0" encoding="UTF-8"?>
<svg id="Layer_2" data-name="Layer 2" xmlns="http://www.w3.org/2000/svg" viewBox="0 0 43.92 43.93">
  <defs>
    <style>
      .cls-1 {
        fill: #1bd760;
      }
    </style>
  </defs>
  <g id="Layer_1-2" data-name="Layer 1">
    <path class="cls-1" d="M21.78,0C9.81,.11-.1,10.18,0,22.16c.09,11.98,10.14,21.86,22.14,21.77,11.98-.09,21.87-10.14,21.78-22.13C43.83,9.84,33.72-.1,21.78,0Zm10.03,31.25c-.43,1.29-1.67,.93-2.51,.51-5.44-2.7-11.09-3.18-16.98-1.89-1.08,.23-2.7,.44-2.76-1.17-.06-1.39,1.44-1.57,2.61-1.69,2.31-.24,4.62-.46,6.93-.69,3.91,.18,7.62,.97,11.07,2.8,.85,.44,2.05,.9,1.64,2.13Zm2.82-5.98c-.62,1.39-1.95,1.12-3,.61-4.09-2.01-8.36-3.21-12.98-3.31-2.46,.34-4.93,.62-7.37,1.05-1.3,.23-2.46,.11-2.82-1.25-.29-1.14,.71-1.85,1.69-2.1,8.05-2.1,15.79-1.24,23.16,2.67,.89,.47,1.83,1.2,1.32,2.33Zm-.6-6.25c-7.49-3.42-15.26-4-23.27-2.32-1.51,.32-3.26,.51-3.63-1.43-.38-1.99,1.47-2.18,2.89-2.65,2.9-.95,5.9-.65,8.85-.89,5.9-.12,11.54,.94,16.84,3.55,1.16,.57,2.65,1.3,2.05,2.92-.7,1.93-2.29,1.48-3.73,.82Z"/>
  </g>
</svg>