<?xml version="1.0" encoding="UTF-8"?>
<svg id="Layer_2" data-name="Layer 2" xmlns="http://www.w3.org/2000/svg" viewBox="0 0 37.09 23.17">
  <defs>
    <style>
      .cls-1 {
        fill: #fefefe;
      }
    </style>
  </defs>
  <g id="Layer_1-2" data-name="Layer 1">
    <path class="cls-1" d="M37.04,12.27c0,2.32-.11,4.66,.03,6.97,.17,2.67-.64,3.9-3.6,3.91-3.1,.01-3.52-1.5-3.46-4.04,.11-5.14,.11-10.29,0-15.44C29.96,1.25,30.6,.03,33.34,0c2.84-.03,3.89,1.01,3.74,3.8-.16,2.81-.03,5.64-.03,8.46Z"/>
    <path class="cls-1" d="M27.04,14.54c0,1.83-.08,3.66,.02,5.48,.13,2.49-1.17,3.06-3.38,3.09-2.4,.04-3.78-.52-3.68-3.29,.14-3.81,.14-7.64,0-11.45-.1-2.73,1.18-3.34,3.63-3.36,2.62-.02,3.6,1.01,3.43,3.56-.13,1.98-.03,3.98-.03,5.98Z"/>
    <path class="cls-1" d="M10.05,16.25c0-1.16,.03-2.32,0-3.48-.06-2.25,1.25-2.77,3.2-2.72,1.91,.04,3.79-.07,3.8,2.64,0,1.99-.06,3.98,.02,5.96,.1,2.51,.08,4.5-3.48,4.51-3.51,.01-3.72-1.86-3.54-4.43,.06-.82,0-1.66,.01-2.48Z"/>
    <path class="cls-1" d="M.07,18.31c-.23-2.37-.11-4.33,3.44-4.33,3.48,0,3.59,1.87,3.58,4.45,0,2.7,.06,4.82-3.78,4.73C-.42,23.08,.02,20.81,.07,18.31Z"/>
  </g>
</svg>